<svg xmlns="http://www.w3.org/2000/svg" width="63" height="24" viewBox="0 0 63 24">
    <g fill="#FFFFFE" fill-rule="evenodd">
        <path d="M23.245 2.955h2.727V.29h-2.727zM23.245 19.498h2.728V4.225h-2.728zM44.318 4.222h2.32v2.644h-2.32v9.336c0 .509.157.65.642.65h.903v2.642h-.926a3.282 3.282 0 0 1-2.364-.96c-.643-.628-.96-1.419-.96-2.332V6.866H39.34V4.222h2.273V.29h2.705v3.932M61.44 16.569c0 .52.16.664.655.664H63v2.698h-.93c-.842 0-1.59-.256-2.211-.778a3.234 3.234 0 0 1-.774-.937 6.607 6.607 0 0 1-1.769 1.143c-.97.43-2.006.641-3.096.641-1.956 0-3.672-.632-5.093-1.872C47.722 16.754 47 15.066 47 13.122v-2.06C47 7.17 50.24 4 54.22 4c4.012 0 7.221 3.139 7.221 7.063v5.506zm-4.096-8.561c-.866-.86-1.898-1.286-3.124-1.286-1.226 0-2.266.425-3.15 1.288-.879.846-1.311 1.854-1.311 3.054v2.059c0 1.213.429 2.233 1.303 3.092.919.857 1.964 1.271 3.158 1.271 1.226 0 2.257-.423 3.123-1.283.881-.863 1.315-1.882 1.315-3.08v-2.06c0-1.199-.436-2.208-1.314-3.055z"/>
        <g>
            <path d="M19.386.306v16.277c0 .511.158.666.682.666h.889v2.705h-.914c-.95 0-1.779-.33-2.447-.984-.66-.642-.986-1.452-.986-2.387V.306h2.776M10.423 8.003c-.888-.866-1.935-1.291-3.169-1.291-2.478 0-4.465 1.94-4.465 4.352v2.065c0 1.184.425 2.212 1.299 3.108.922.854 1.97 1.266 3.166 1.266 2.477 0 4.49-1.96 4.49-4.374v-2.065c0-1.202-.437-2.212-1.321-3.061zM0 23.999V10.686C.088 8.91.798 7.366 2.118 6.08c1.427-1.39 3.15-2.097 5.136-2.097 1.986 0 3.7.698 5.114 2.073 1.427 1.392 2.151 3.071 2.151 5.009v2.064c0 1.937-.737 3.628-2.164 5.019-1.43 1.243-3.148 1.876-5.1 1.876-1.127 0-2.177-.212-3.143-.645a6.586 6.586 0 0 1-1.394-.839V24H0z"/>
        </g>
        <path d="M35.93 11.094l.06.027c1.832.82 3.01 2.33 3.01 4.1C39 17.92 36.163 20 32.702 20c-2.324 0-4.301-.84-5.702-2.59l2.831-1.553c.646 1.013 1.593 1.5 2.872 1.5 1.724 0 2.987-1.019 2.987-2.137 0-.818-.65-1.458-1.788-1.959l-.237-.1-.132-.055-2.092-.88c-2.545-.945-3.67-2.214-3.67-4.122 0-2.328 2.426-4.104 5.38-4.104 2.091 0 3.854.792 5.018 2.435l-2.901 1.59c-.369-.915-1.016-1.385-2.118-1.385-1.218 0-2.07.718-2.07 1.463 0 .579.143.935 1.062 1.416l3.55 1.475c.08.032.158.066.238.1"/>
    </g>
</svg>
